<svg viewBox="0 0 47 47" version="1.1" xmlns="http://www.w3.org/2000/svg" xmlns:xlink="http://www.w3.org/1999/xlink">
        <g id="new_logo">
            <circle id="Oval" fill="#FFFFFF" cx="23.5" cy="23.5" r="23.5"></circle>
            <path d="M39.9262863,11.5349816 L37.6809804,10.5923198 L37.6809804,25.7927407 L41.7526918,15.9284587 C42.4396884,14.2114676 41.6521558,12.2419779 39.9262863,11.5349816 M7.25205878,17.7632825 L15.5630418,37.879011 C16.0824782,39.175171 17.3056672,39.9663335 18.5958803,40 C19.0315367,40 19.4839491,39.9158338 19.9196055,39.7306681 L32.2687878,34.5965281 C33.5254889,34.0746975 34.2962656,32.8290373 34.3297776,31.5833772 C34.3465336,31.1457128 34.2627535,30.6575487 34.1119494,30.2198843 L25.7339423,10.1041557 C25.2480179,8.80799579 24.0080729,8.01683325 22.7011038,8 C22.2654474,8 21.8297911,8.10099947 21.4108907,8.25249868 L9.07846432,13.3866386 C7.36935088,14.0936349 6.54830619,16.0631247 7.25205878,17.7632825 M34.3130216,11.3666491 C34.3130216,9.51499211 32.8049803,8 30.9618187,8 L28.5321967,8 L34.3130216,22.0389269" id="Shape" fill="#414DBC" fill-rule="nonzero"></path>
        </g>
</svg>