<?xml version="1.0" standalone="no"?>
<!DOCTYPE svg PUBLIC "-//W3C//DTD SVG 20010904//EN"
 "http://www.w3.org/TR/2001/REC-SVG-20010904/DTD/svg10.dtd">
<svg version="1.0" xmlns="http://www.w3.org/2000/svg"
 width="700.000000pt" height="700.000000pt" viewBox="0 0 700.000000 700.000000"
 preserveAspectRatio="xMidYMid meet">
<metadata>
Created by potrace 1.11, written by Peter Selinger 2001-2013
</metadata>
<g transform="translate(0.000000,700.000000) scale(0.100000,-0.100000)"
fill="#000000" stroke="none">
<path d="M3315 5804 c-11 -3 -40 -10 -65 -16 -46 -11 -1857 -761 -1943 -805
-104 -52 -206 -180 -244 -307 -20 -67 -20 -197 0 -266 28 -93 1274 -3100 1302
-3140 112 -162 287 -243 474 -219 61 7 212 67 1014 400 518 215 968 405 999
421 69 36 166 135 201 203 58 115 73 247 41 367 -17 69 -1238 3009 -1291 3111
-42 79 -123 159 -204 200 -84 42 -214 65 -284 51z"/>
<path d="M4252 5801 c2 -4 194 -472 428 -1040 l425 -1031 3 816 c2 897 4 871
-59 996 -38 75 -132 169 -206 206 -103 52 -168 62 -392 62 -111 0 -201 -4
-199 -9z"/>
<path d="M5610 4293 c0 -619 2 -1124 5 -1122 9 10 605 1461 620 1511 19 66 19
205 0 273 -35 117 -121 233 -218 289 -38 23 -390 176 -403 176 -2 0 -4 -507
-4 -1127z"/>
</g>
</svg>
